<?xml version="1.0" encoding="UTF-8"?>
<svg version="1.1" xmlns="http://www.w3.org/2000/svg" width="512" height="512">
<path d="M0 0 C44.22 0 88.44 0 134 0 C134 10.89 134 21.78 134 33 C145.22 33 156.44 33 168 33 C168 44.22 168 55.44 168 67 C178.89 67 189.78 67 201 67 C201 111.22 201 155.44 201 201 C190.11 201 179.22 201 168 201 C168 211.89 168 222.78 168 234 C156.78 234 145.56 234 134 234 C134 244.89 134 255.78 134 267 C156.11 267 178.22 267 201 267 C201 277.89 201 288.78 201 300 C211.89 300 222.78 300 234 300 C234 333.33 234 366.66 234 401 C123.78 401 13.56 401 -100 401 C-100 367.67 -100 334.34 -100 300 C-89.11 300 -78.22 300 -67 300 C-67 289.11 -67 278.22 -67 267 C-44.89 267 -22.78 267 0 267 C0 256.11 0 245.22 0 234 C-11.22 234 -22.44 234 -34 234 C-34 223.11 -34 212.22 -34 201 C-44.89 201 -55.78 201 -67 201 C-67 156.78 -67 112.56 -67 67 C-56.11 67 -45.22 67 -34 67 C-34 55.78 -34 44.56 -34 33 C-22.78 33 -11.56 33 0 33 C0 22.11 0 11.22 0 0 Z " fill="#1ECAFF" transform="translate(100,72)"/>
<path d="M0 0 C44.22 0 88.44 0 134 0 C134 10.89 134 21.78 134 33 C145.22 33 156.44 33 168 33 C168 43.89 168 54.78 168 66 C178.89 66 189.78 66 201 66 C201 110.55 201 155.1 201 201 C190.11 201 179.22 201 168 201 C168 211.89 168 222.78 168 234 C156.78 234 145.56 234 134 234 C134 244.89 134 255.78 134 267 C156.11 267 178.22 267 201 267 C201 277.89 201 288.78 201 300 C211.89 300 222.78 300 234 300 C234 333.33 234 366.66 234 401 C186.15 401 138.3 401 89 401 C89 368 89 335 89 301 C81.74 301 74.48 301 67 301 C67 223.78 67 146.56 67 67 C55.78 67 44.56 67 33 67 C33 56.11 33 45.22 33 34 C22.11 34 11.22 34 0 34 C0 22.78 0 11.56 0 0 Z " fill="#1ECAFF" transform="translate(278,39)"/>
</svg>
