<?xml version="1.0" encoding="UTF-8"?>
<svg version="1.1" xmlns="http://www.w3.org/2000/svg" width="512" height="512">
<path d="M0 0 C44.22 0 88.44 0 134 0 C134 10.89 134 21.78 134 33 C145.22 33 156.44 33 168 33 C168 44.22 168 55.44 168 67 C178.89 67 189.78 67 201 67 C201 111.22 201 155.44 201 201 C190.11 201 179.22 201 168 201 C168 212.22 168 223.44 168 235 C156.78 235 145.56 235 134 235 C134 245.56 134 256.12 134 267 C156.11 267 178.22 267 201 267 C201 277.89 201 288.78 201 300 C211.89 300 222.78 300 234 300 C234 333.66 234 367.32 234 402 C123.78 402 13.56 402 -100 402 C-100 368.34 -100 334.68 -100 300 C-89.11 300 -78.22 300 -67 300 C-67 289.11 -67 278.22 -67 267 C-44.89 267 -22.78 267 0 267 C0 256.44 0 245.88 0 235 C-11.22 235 -22.44 235 -34 235 C-34 223.78 -34 212.56 -34 201 C-44.89 201 -55.78 201 -67 201 C-67 156.78 -67 112.56 -67 67 C-56.11 67 -45.22 67 -34 67 C-34 55.78 -34 44.56 -34 33 C-22.78 33 -11.56 33 0 33 C0 22.11 0 11.22 0 0 Z " fill="#000000" transform="translate(100,72)"/>
<path d="M0 0 C44.22 0 88.44 0 134 0 C134 11.22 134 22.44 134 34 C145.22 34 156.44 34 168 34 C168 44.89 168 55.78 168 67 C178.89 67 189.78 67 201 67 C201 111.55 201 156.1 201 202 C190.11 202 179.22 202 168 202 C168 212.89 168 223.78 168 235 C156.78 235 145.56 235 134 235 C134 245.89 134 256.78 134 268 C156.11 268 178.22 268 201 268 C201 278.89 201 289.78 201 301 C211.89 301 222.78 301 234 301 C234 334.33 234 367.66 234 402 C186.15 402 138.3 402 89 402 C89 369 89 336 89 302 C81.74 302 74.48 302 67 302 C67 224.78 67 147.56 67 68 C55.78 68 44.56 68 33 68 C33 57.11 33 46.22 33 35 C22.11 35 11.22 35 0 35 C0 23.45 0 11.9 0 0 Z " fill="#000000" transform="translate(278,38)"/>
</svg>
