<?xml version="1.0" encoding="UTF-8"?>
<svg version="1.1" xmlns="http://www.w3.org/2000/svg" width="512" height="512">
<path d="M0 0 C10.23 0 20.46 0 31 0 C31 39.6 31 79.2 31 120 C40.57 120 50.14 120 60 120 C60 100.2 60 80.4 60 60 C70.23 60 80.46 60 91 60 C91 79.8 91 99.6 91 120 C100.57 120 110.14 120 120 120 C120 80.4 120 40.8 120 0 C130.56 0 141.12 0 152 0 C152 39.6 152 79.2 152 120 C161.57 120 171.14 120 181 120 C181 100.2 181 80.4 181 60 C191.23 60 201.46 60 212 60 C212 79.8 212 99.6 212 120 C221.57 120 231.14 120 241 120 C241 80.4 241 40.8 241 0 C251.23 0 261.46 0 272 0 C272 39.6 272 79.2 272 120 C281.57 120 291.14 120 301 120 C301 100.2 301 80.4 301 60 C321.13 60 341.26 60 362 60 C362 69.9 362 79.8 362 90 C371.9 90 381.8 90 392 90 C392 209.46 392 328.92 392 452 C382.1 452 372.2 452 362 452 C362 461.9 362 471.8 362 482 C352.1 482 342.2 482 332 482 C332 491.9 332 501.8 332 512 C202.64 512 73.28 512 -60 512 C-60 502.1 -60 492.2 -60 482 C-69.9 482 -79.8 482 -90 482 C-90 472.1 -90 462.2 -90 452 C-99.9 452 -109.8 452 -120 452 C-120 332.54 -120 213.08 -120 90 C-110.1 90 -100.2 90 -90 90 C-90 80.1 -90 70.2 -90 60 C-69.87 60 -49.74 60 -29 60 C-29 79.8 -29 99.6 -29 120 C-19.43 120 -9.86 120 0 120 C0 80.4 0 40.8 0 0 Z M1 121 C1 130.57 1 140.14 1 150 C10.57 150 20.14 150 30 150 C30 140.43 30 130.86 30 121 C20.43 121 10.86 121 1 121 Z M121 121 C121 130.57 121 140.14 121 150 C130.9 150 140.8 150 151 150 C151 140.43 151 130.86 151 121 C141.1 121 131.2 121 121 121 Z M242 121 C242 130.57 242 140.14 242 150 C251.57 150 261.14 150 271 150 C271 140.43 271 130.86 271 121 C261.43 121 251.86 121 242 121 Z M-89 181 C-89 190.57 -89 200.14 -89 210 C59.5 210 208 210 361 210 C361 200.43 361 190.86 361 181 C212.5 181 64 181 -89 181 Z M-29 241 C-29 250.9 -29 260.8 -29 271 C-19.43 271 -9.86 271 0 271 C0 261.1 0 251.2 0 241 C-9.57 241 -19.14 241 -29 241 Z M31 241 C31 250.9 31 260.8 31 271 C40.57 271 50.14 271 60 271 C60 261.1 60 251.2 60 241 C50.43 241 40.86 241 31 241 Z M91 241 C91 250.9 91 260.8 91 271 C100.57 271 110.14 271 120 271 C120 261.1 120 251.2 120 241 C110.43 241 100.86 241 91 241 Z M212 241 C212 250.9 212 260.8 212 271 C221.57 271 231.14 271 241 271 C241 261.1 241 251.2 241 241 C231.43 241 221.86 241 212 241 Z M182 272 C182 281.57 182 291.14 182 301 C191.57 301 201.14 301 211 301 C211 291.43 211 281.86 211 272 C201.43 272 191.86 272 182 272 Z M242 272 C242 281.57 242 291.14 242 301 C251.57 301 261.14 301 271 301 C271 291.43 271 281.86 271 272 C261.43 272 251.86 272 242 272 Z M-29 302 C-29 311.57 -29 321.14 -29 331 C-19.43 331 -9.86 331 0 331 C0 321.43 0 311.86 0 302 C-9.57 302 -19.14 302 -29 302 Z M31 302 C31 311.57 31 321.14 31 331 C40.57 331 50.14 331 60 331 C60 321.43 60 311.86 60 302 C50.43 302 40.86 302 31 302 Z M91 302 C91 311.57 91 321.14 91 331 C100.57 331 110.14 331 120 331 C120 321.43 120 311.86 120 302 C110.43 302 100.86 302 91 302 Z M152 302 C152 311.57 152 321.14 152 331 C161.57 331 171.14 331 181 331 C181 321.43 181 311.86 181 302 C171.43 302 161.86 302 152 302 Z M212 302 C212 311.57 212 321.14 212 331 C221.57 331 231.14 331 241 331 C241 321.43 241 311.86 241 302 C231.43 302 221.86 302 212 302 Z M272 302 C272 311.57 272 321.14 272 331 C281.57 331 291.14 331 301 331 C301 321.43 301 311.86 301 302 C291.43 302 281.86 302 272 302 Z M182 332 C182 341.57 182 351.14 182 361 C191.57 361 201.14 361 211 361 C211 351.43 211 341.86 211 332 C201.43 332 191.86 332 182 332 Z M242 332 C242 341.57 242 351.14 242 361 C251.57 361 261.14 361 271 361 C271 351.43 271 341.86 271 332 C261.43 332 251.86 332 242 332 Z M-29 362 C-29 371.57 -29 381.14 -29 391 C-19.43 391 -9.86 391 0 391 C0 381.43 0 371.86 0 362 C-9.57 362 -19.14 362 -29 362 Z M31 362 C31 371.57 31 381.14 31 391 C40.57 391 50.14 391 60 391 C60 381.43 60 371.86 60 362 C50.43 362 40.86 362 31 362 Z M91 362 C91 371.57 91 381.14 91 391 C100.57 391 110.14 391 120 391 C120 381.43 120 371.86 120 362 C110.43 362 100.86 362 91 362 Z M212 362 C212 371.57 212 381.14 212 391 C221.57 391 231.14 391 241 391 C241 381.43 241 371.86 241 362 C231.43 362 221.86 362 212 362 Z M-89 422 C-89 431.57 -89 441.14 -89 451 C-79.43 451 -69.86 451 -60 451 C-60 441.43 -60 431.86 -60 422 C-69.57 422 -79.14 422 -89 422 Z M332 422 C332 431.57 332 441.14 332 451 C341.57 451 351.14 451 361 451 C361 441.43 361 431.86 361 422 C351.43 422 341.86 422 332 422 Z M-59 452 C-59 461.57 -59 471.14 -59 481 C69.7 481 198.4 481 331 481 C331 471.43 331 461.86 331 452 C202.3 452 73.6 452 -59 452 Z " fill="#1ECBFF" transform="translate(120,0)"/>
</svg>
