<?xml version="1.0" encoding="UTF-8"?>
<svg version="1.1" xmlns="http://www.w3.org/2000/svg" width="512" height="512">
<path d="M0 0 C56.76 0 113.52 0 172 0 C172 11.22 172 22.44 172 34 C183.22 34 194.44 34 206 34 C206 45.22 206 56.44 206 68 C239.66 68 273.32 68 308 68 C308 79.22 308 90.44 308 102 C319.22 102 330.44 102 342 102 C342 192.42 342 282.84 342 376 C330.78 376 319.56 376 308 376 C308 387.22 308 398.44 308 410 C161.48 410 14.96 410 -136 410 C-136 398.78 -136 387.56 -136 376 C-147.22 376 -158.44 376 -170 376 C-170 285.58 -170 195.16 -170 102 C-158.78 102 -147.56 102 -136 102 C-136 90.78 -136 79.56 -136 68 C-102.34 68 -68.68 68 -34 68 C-34 56.78 -34 45.56 -34 34 C-22.78 34 -11.56 34 0 34 C0 22.78 0 11.56 0 0 Z M1 35 C1 46.22 1 57.44 1 69 C-10.22 69 -21.44 69 -33 69 C-33 80.22 -33 91.44 -33 103 C-66.66 103 -100.32 103 -135 103 C-135 192.76 -135 282.52 -135 375 C10.86 375 156.72 375 307 375 C307 285.24 307 195.48 307 103 C273.34 103 239.68 103 205 103 C205 91.78 205 80.56 205 69 C193.78 69 182.56 69 171 69 C171 57.78 171 46.56 171 35 C114.9 35 58.8 35 1 35 Z " fill="#1ECBFF" transform="translate(170,51)"/>
<path d="M0 0 C34.32 0 68.64 0 104 0 C104 11.22 104 22.44 104 34 C115.22 34 126.44 34 138 34 C138 45.22 138 56.44 138 68 C149.22 68 160.44 68 172 68 C172 102.32 172 136.64 172 172 C160.78 172 149.56 172 138 172 C138 183.22 138 194.44 138 206 C126.78 206 115.56 206 104 206 C104 217.22 104 228.44 104 240 C69.68 240 35.36 240 0 240 C0 228.78 0 217.56 0 206 C-11.22 206 -22.44 206 -34 206 C-34 194.78 -34 183.56 -34 172 C-45.22 172 -56.44 172 -68 172 C-68 137.68 -68 103.36 -68 68 C-56.78 68 -45.56 68 -34 68 C-34 56.78 -34 45.56 -34 34 C-22.78 34 -11.56 34 0 34 C0 22.78 0 11.56 0 0 Z M1 35 C1 46.22 1 57.44 1 69 C-10.22 69 -21.44 69 -33 69 C-33 102.66 -33 136.32 -33 171 C-21.78 171 -10.56 171 1 171 C1 182.22 1 193.44 1 205 C34.66 205 68.32 205 103 205 C103 193.78 103 182.56 103 171 C114.22 171 125.44 171 137 171 C137 137.34 137 103.68 137 69 C125.78 69 114.56 69 103 69 C103 57.78 103 46.56 103 35 C69.34 35 35.68 35 1 35 Z " fill="#1ECAFF" transform="translate(204,153)"/>
</svg>
