<?xml version="1.0" encoding="UTF-8"?>
<svg version="1.1" xmlns="http://www.w3.org/2000/svg" width="512" height="512">
<path d="M0 0 C50.16 0 100.32 0 152 0 C152 9.9 152 19.8 152 30 C171.8 30 191.6 30 212 30 C212 39.9 212 49.8 212 60 C221.9 60 231.8 60 242 60 C242 69.9 242 79.8 242 90 C251.9 90 261.8 90 272 90 C272 99.9 272 109.8 272 120 C281.9 120 291.8 120 302 120 C302 139.8 302 159.6 302 180 C311.9 180 321.8 180 332 180 C332 230.16 332 280.32 332 332 C322.1 332 312.2 332 302 332 C302 351.8 302 371.6 302 392 C292.1 392 282.2 392 272 392 C272 401.9 272 411.8 272 422 C262.1 422 252.2 422 242 422 C242 431.9 242 441.8 242 452 C232.1 452 222.2 452 212 452 C212 461.9 212 471.8 212 482 C192.2 482 172.4 482 152 482 C152 491.9 152 501.8 152 512 C101.84 512 51.68 512 0 512 C0 502.1 0 492.2 0 482 C-19.8 482 -39.6 482 -60 482 C-60 472.1 -60 462.2 -60 452 C-69.9 452 -79.8 452 -90 452 C-90 442.1 -90 432.2 -90 422 C-99.9 422 -109.8 422 -120 422 C-120 412.1 -120 402.2 -120 392 C-129.9 392 -139.8 392 -150 392 C-150 372.2 -150 352.4 -150 332 C-159.9 332 -169.8 332 -180 332 C-180 281.84 -180 231.68 -180 180 C-170.1 180 -160.2 180 -150 180 C-150 160.2 -150 140.4 -150 120 C-140.1 120 -130.2 120 -120 120 C-120 110.1 -120 100.2 -120 90 C-110.1 90 -100.2 90 -90 90 C-90 80.1 -90 70.2 -90 60 C-80.1 60 -70.2 60 -60 60 C-60 50.1 -60 40.2 -60 30 C-40.2 30 -20.4 30 0 30 C0 20.1 0 10.2 0 0 Z M31 31 C31 60.37 31 89.74 31 120 C60.7 120 90.4 120 121 120 C121 90.63 121 61.26 121 31 C91.3 31 61.6 31 31 31 Z M1 151 C1 160.9 1 170.8 1 181 C-8.9 181 -18.8 181 -29 181 C-29 230.5 -29 280 -29 331 C-19.1 331 -9.2 331 1 331 C1 340.9 1 350.8 1 361 C50.5 361 100 361 151 361 C151 351.1 151 341.2 151 331 C160.9 331 170.8 331 181 331 C181 281.5 181 232 181 181 C171.1 181 161.2 181 151 181 C151 171.1 151 161.2 151 151 C101.5 151 52 151 1 151 Z M-149 211 C-149 240.7 -149 270.4 -149 301 C-119.63 301 -90.26 301 -60 301 C-60 271.3 -60 241.6 -60 211 C-89.37 211 -118.74 211 -149 211 Z M212 211 C212 240.7 212 270.4 212 301 C241.37 301 270.74 301 301 301 C301 271.3 301 241.6 301 211 C271.63 211 242.26 211 212 211 Z M31 392 C31 421.37 31 450.74 31 481 C60.7 481 90.4 481 121 481 C121 451.63 121 422.26 121 392 C91.3 392 61.6 392 31 392 Z " fill="#1FCAFF" transform="translate(180,0)"/>
</svg>
