<?xml version="1.0" encoding="UTF-8"?>
<svg version="1.1" xmlns="http://www.w3.org/2000/svg" width="512" height="512">
<path d="M0 0 C14.19 0 28.38 0 43 0 C43 14.19 43 28.38 43 43 C57.19 43 71.38 43 86 43 C86 57.19 86 71.38 86 86 C100.19 86 114.38 86 129 86 C129 99.86 129 113.72 129 128 C142.86 128 156.72 128 171 128 C171 142.52 171 157.04 171 172 C157.14 172 143.28 172 129 172 C129.03960567 185.77724113 129.03960567 185.77724113 129.09008789 199.55444336 C129.09300698 201.2745762 129.09555555 202.99470972 129.09765625 204.71484375 C129.10277222 205.61658325 129.10788818 206.51832275 129.11315918 207.4473877 C129.11346882 209.63191745 129.0624587 211.8163633 129 214 C128 215 128 215 124.03100586 215.11352539 C122.25894395 215.11327421 120.48687716 215.10770978 118.71484375 215.09765625 C117.8902063 215.09664917 117.06556885 215.09564209 116.21594238 215.09460449 C113.12311419 215.08935592 110.03030576 215.07539477 106.9375 215.0625 C100.028125 215.041875 93.11875 215.02125 86 215 C86 228.86 86 242.72 86 257 C71.81 257 57.62 257 43 257 C43 271.19 43 285.38 43 300 C28.81 300 14.62 300 0 300 C0 285.48 0 270.96 0 256 C13.86 256 27.72 256 42 256 C42 242.14 42 228.28 42 214 C56.19 214 70.38 214 85 214 C85 200.14 85 186.28 85 172 C-13.67 172 -112.34 172 -214 172 C-214 157.48 -214 142.96 -214 128 C-115.33 128 -16.66 128 85 128 C85 114.47 85 100.94 85 87 C70.81 87 56.62 87 42 87 C42 72.81 42 58.62 42 44 C28.14 44 14.28 44 0 44 C0 29.48 0 14.96 0 0 Z " fill="#FC002F" transform="translate(320,106)"/>
<path d="M0 0 C28.38 0 56.76 0 86 0 C86 14.52 86 29.04 86 44 C57.95 44 29.9 44 1 44 C1 135.08 1 226.16 1 320 C29.05 320 57.1 320 86 320 C86 334.52 86 349.04 86 364 C57.62 364 29.24 364 0 364 C0 349.81 0 335.62 0 321 C-14.19 321 -28.38 321 -43 321 C-43 229.26 -43 137.52 -43 43 C-28.81 43 -14.62 43 0 43 C0 28.81 0 14.62 0 0 Z " fill="#FD002F" transform="translate(64,74)"/>
</svg>
