<?xml version="1.0" encoding="UTF-8"?>
<svg version="1.1" xmlns="http://www.w3.org/2000/svg" width="512" height="512">
<path d="M0 0 C66.66 0 133.32 0 202 0 C202 10.89 202 21.78 202 33 C220.15 33 238.3 33 257 33 C257 43.89 257 54.78 257 66 C268.22 66 279.44 66 291 66 C291 77.22 291 88.44 291 100 C301.89 100 312.78 100 324 100 C324 118.15 324 136.3 324 155 C334.89 155 345.78 155 357 155 C357 221.66 357 288.32 357 357 C346.11 357 335.22 357 324 357 C324 375.15 324 393.3 324 412 C313.11 412 302.22 412 291 412 C291 423.22 291 434.44 291 446 C279.78 446 268.56 446 257 446 C257 456.89 257 467.78 257 479 C238.85 479 220.7 479 202 479 C202 489.89 202 500.78 202 512 C135.34 512 68.68 512 0 512 C0 501.11 0 490.22 0 479 C-18.15 479 -36.3 479 -55 479 C-55 468.11 -55 457.22 -55 446 C-66.22 446 -77.44 446 -89 446 C-89 434.78 -89 423.56 -89 412 C-99.89 412 -110.78 412 -122 412 C-122 393.85 -122 375.7 -122 357 C-132.89 357 -143.78 357 -155 357 C-155 290.34 -155 223.68 -155 155 C-144.11 155 -133.22 155 -122 155 C-122 136.85 -122 118.7 -122 100 C-111.11 100 -100.22 100 -89 100 C-89 88.78 -89 77.56 -89 66 C-77.78 66 -66.56 66 -55 66 C-55 55.11 -55 44.22 -55 33 C-36.85 33 -18.7 33 0 33 C0 22.11 0 11.22 0 0 Z M90 67 C90 122.11 90 177.22 90 234 C57 234 24 234 -10 234 C-10 244.89 -10 255.78 -10 267 C33.89 267 77.78 267 123 267 C123 201 123 135 123 67 C112.11 67 101.22 67 90 67 Z " fill="#1FCAFF" transform="translate(155,0)"/>
</svg>
