<?xml version="1.0" encoding="UTF-8"?>
<svg version="1.1" xmlns="http://www.w3.org/2000/svg" width="512" height="512">
<path d="M0 0 C58.74 0 117.48 0 178 0 C178 10.89 178 21.78 178 33 C200.11 33 222.22 33 245 33 C245 43.89 245 54.78 245 66 C256.22 66 267.44 66 279 66 C279 88.11 279 110.22 279 133 C289.89 133 300.78 133 312 133 C312 181.18 312 229.36 312 279 C301.11 279 290.22 279 279 279 C279 300.78 279 322.56 279 345 C267.78 345 256.56 345 245 345 C245 356.22 245 367.44 245 379 C234.11 379 223.22 379 212 379 C212 389.89 212 400.78 212 412 C200.78 412 189.56 412 178 412 C178 423.22 178 434.44 178 446 C167.11 446 156.22 446 145 446 C145 456.89 145 467.78 145 479 C134.11 479 123.22 479 112 479 C112 489.89 112 500.78 112 512 C96.82 512 81.64 512 66 512 C66 501.11 66 490.22 66 479 C55.11 479 44.22 479 33 479 C33 468.11 33 457.22 33 446 C22.11 446 11.22 446 0 446 C0 434.78 0 423.56 0 412 C-11.22 412 -22.44 412 -34 412 C-34 401.11 -34 390.22 -34 379 C-44.89 379 -55.78 379 -67 379 C-67 367.78 -67 356.56 -67 345 C-78.22 345 -89.44 345 -101 345 C-101 323.22 -101 301.44 -101 279 C-111.89 279 -122.78 279 -134 279 C-134 230.82 -134 182.64 -134 133 C-123.11 133 -112.22 133 -101 133 C-101 110.89 -101 88.78 -101 66 C-89.78 66 -78.56 66 -67 66 C-67 55.11 -67 44.22 -67 33 C-44.89 33 -22.78 33 0 33 C0 22.11 0 11.22 0 0 Z M34 101 C34 111.89 34 122.78 34 134 C22.78 134 11.56 134 0 134 C0 170.3 0 206.6 0 244 C11.22 244 22.44 244 34 244 C34 255.22 34 266.44 34 278 C70.3 278 106.6 278 144 278 C144 266.78 144 255.56 144 244 C155.22 244 166.44 244 178 244 C178 207.7 178 171.4 178 134 C166.78 134 155.56 134 144 134 C144 123.11 144 112.22 144 101 C107.7 101 71.4 101 34 101 Z " fill="#1FCAFF" transform="translate(167,0)"/>
</svg>
