<?xml version="1.0" encoding="UTF-8"?>
<svg version="1.1" xmlns="http://www.w3.org/2000/svg" width="512" height="512">
<path d="M0 0 C59.4 0 118.8 0 180 0 C180 10.89 180 21.78 180 33 C201.78 33 223.56 33 246 33 C246 43.89 246 54.78 246 66 C257.22 66 268.44 66 280 66 C280 88.11 280 110.22 280 133 C290.89 133 301.78 133 313 133 C313 181.18 313 229.36 313 279 C302.11 279 291.22 279 280 279 C280 301.11 280 323.22 280 346 C268.78 346 257.56 346 246 346 C246 356.89 246 367.78 246 379 C235.11 379 224.22 379 213 379 C213 389.89 213 400.78 213 412 C202.11 412 191.22 412 180 412 C180 423.22 180 434.44 180 446 C168.78 446 157.56 446 146 446 C146 456.89 146 467.78 146 479 C135.11 479 124.22 479 113 479 C113 489.89 113 500.78 113 512 C97.82 512 82.64 512 67 512 C67 501.11 67 490.22 67 479 C56.11 479 45.22 479 34 479 C34 468.11 34 457.22 34 446 C22.78 446 11.56 446 0 446 C0 434.78 0 423.56 0 412 C-10.89 412 -21.78 412 -33 412 C-33 401.11 -33 390.22 -33 379 C-43.89 379 -54.78 379 -66 379 C-66 368.11 -66 357.22 -66 346 C-77.22 346 -88.44 346 -100 346 C-100 323.89 -100 301.78 -100 279 C-110.89 279 -121.78 279 -133 279 C-133 230.82 -133 182.64 -133 133 C-122.11 133 -111.22 133 -100 133 C-100 110.89 -100 88.78 -100 66 C-88.78 66 -77.56 66 -66 66 C-66 55.11 -66 44.22 -66 33 C-44.22 33 -22.44 33 0 33 C0 22.11 0 11.22 0 0 Z M35 101 C35 111.89 35 122.78 35 134 C23.78 134 12.56 134 1 134 C1 170.3 1 206.6 1 244 C12.22 244 23.44 244 35 244 C35 255.22 35 266.44 35 278 C71.3 278 107.6 278 145 278 C145 266.78 145 255.56 145 244 C156.22 244 167.44 244 179 244 C179 207.7 179 171.4 179 134 C167.78 134 156.56 134 145 134 C145 123.11 145 112.22 145 101 C108.7 101 72.4 101 35 101 Z " fill="#75FF02" transform="translate(166,0)"/>
</svg>
