<?xml version="1.0" encoding="UTF-8"?>
<svg version="1.1" xmlns="http://www.w3.org/2000/svg" width="512" height="512">
<path d="M0 0 C30.36 0 60.72 0 92 0 C92 9.9 92 19.8 92 30 C111.8 30 131.6 30 152 30 C152 39.9 152 49.8 152 60 C171.8 60 191.6 60 212 60 C212 69.9 212 79.8 212 90 C231.8 90 251.6 90 272 90 C272 109.8 272 129.6 272 150 C281.9 150 291.8 150 302 150 C302 229.86 302 309.72 302 392 C292.1 392 282.2 392 272 392 C272 401.9 272 411.8 272 422 C252.2 422 232.4 422 212 422 C212 431.9 212 441.8 212 452 C192.2 452 172.4 452 152 452 C152 461.9 152 471.8 152 482 C132.2 482 112.4 482 92 482 C92 491.9 92 501.8 92 512 C61.64 512 31.28 512 0 512 C0 502.1 0 492.2 0 482 C-19.8 482 -39.6 482 -60 482 C-60 472.1 -60 462.2 -60 452 C-79.8 452 -99.6 452 -120 452 C-120 442.1 -120 432.2 -120 422 C-139.8 422 -159.6 422 -180 422 C-180 412.1 -180 402.2 -180 392 C-189.9 392 -199.8 392 -210 392 C-210 312.14 -210 232.28 -210 150 C-200.1 150 -190.2 150 -180 150 C-180 130.2 -180 110.4 -180 90 C-160.2 90 -140.4 90 -120 90 C-120 80.1 -120 70.2 -120 60 C-100.2 60 -80.4 60 -60 60 C-60 50.1 -60 40.2 -60 30 C-40.2 30 -20.4 30 0 30 C0 20.1 0 10.2 0 0 Z M31 61 C31 70.57 31 80.14 31 90 C40.9 90 50.8 90 61 90 C61 80.43 61 70.86 61 61 C51.1 61 41.2 61 31 61 Z M-59 121 C-59 130.57 -59 140.14 -59 150 C-49.43 150 -39.86 150 -30 150 C-30 140.43 -30 130.86 -30 121 C-39.57 121 -49.14 121 -59 121 Z M31 121 C31 130.57 31 140.14 31 150 C40.9 150 50.8 150 61 150 C61 140.43 61 130.86 61 121 C51.1 121 41.2 121 31 121 Z M122 121 C122 130.57 122 140.14 122 150 C131.57 150 141.14 150 151 150 C151 140.43 151 130.86 151 121 C141.43 121 131.86 121 122 121 Z M-179 151 C-179 160.57 -179 170.14 -179 180 C-159.53 180 -140.06 180 -120 180 C-120 170.43 -120 160.86 -120 151 C-139.47 151 -158.94 151 -179 151 Z M212 151 C212 160.9 212 170.8 212 181 C192.2 181 172.4 181 152 181 C152 190.9 152 200.8 152 211 C132.2 211 112.4 211 92 211 C92 220.9 92 230.8 92 241 C61.97 241 31.94 241 1 241 C1 250.9 1 260.8 1 271 C21.13 271 41.26 271 62 271 C62 340.3 62 409.6 62 481 C71.57 481 81.14 481 91 481 C91 471.1 91 461.2 91 451 C110.8 451 130.6 451 151 451 C151 441.1 151 431.2 151 421 C170.8 421 190.6 421 211 421 C211 411.1 211 401.2 211 391 C230.8 391 250.6 391 271 391 C271 311.8 271 232.6 271 151 C251.53 151 232.06 151 212 151 Z M-119 181 C-119 190.57 -119 200.14 -119 210 C-99.53 210 -80.06 210 -60 210 C-60 200.43 -60 190.86 -60 181 C-79.47 181 -98.94 181 -119 181 Z M31 181 C31 190.57 31 200.14 31 210 C40.9 210 50.8 210 61 210 C61 200.43 61 190.86 61 181 C51.1 181 41.2 181 31 181 Z M-59 211 C-59 220.57 -59 230.14 -59 240 C-39.53 240 -20.06 240 0 240 C0 230.43 0 220.86 0 211 C-19.47 211 -38.94 211 -59 211 Z M-149 241 C-149 250.9 -149 260.8 -149 271 C-139.43 271 -129.86 271 -120 271 C-120 261.1 -120 251.2 -120 241 C-129.57 241 -139.14 241 -149 241 Z M-89 272 C-89 281.57 -89 291.14 -89 301 C-79.43 301 -69.86 301 -60 301 C-60 291.43 -60 281.86 -60 272 C-69.57 272 -79.14 272 -89 272 Z M-149 302 C-149 311.57 -149 321.14 -149 331 C-139.43 331 -129.86 331 -120 331 C-120 321.43 -120 311.86 -120 302 C-129.57 302 -139.14 302 -149 302 Z M-29 302 C-29 311.57 -29 321.14 -29 331 C-19.43 331 -9.86 331 0 331 C0 321.43 0 311.86 0 302 C-9.57 302 -19.14 302 -29 302 Z M-89 332 C-89 341.57 -89 351.14 -89 361 C-79.43 361 -69.86 361 -60 361 C-60 351.43 -60 341.86 -60 332 C-69.57 332 -79.14 332 -89 332 Z M-29 362 C-29 371.57 -29 381.14 -29 391 C-19.43 391 -9.86 391 0 391 C0 381.43 0 371.86 0 362 C-9.57 362 -19.14 362 -29 362 Z " fill="#FD0030" transform="translate(210,0)"/>
<path d="M0 0 C10.23 0 20.46 0 31 0 C31 10.23 31 20.46 31 31 C20.77 31 10.54 31 0 31 C0 20.77 0 10.54 0 0 Z " fill="#FC002F" transform="translate(361,331)"/>
<path d="M0 0 C10.23 0 20.46 0 31 0 C31 10.23 31 20.46 31 31 C20.77 31 10.54 31 0 31 C0 20.77 0 10.54 0 0 Z " fill="#FD002F" transform="translate(361,271)"/>
</svg>
