<?xml version="1.0" encoding="UTF-8"?>
<svg version="1.1" xmlns="http://www.w3.org/2000/svg" width="512" height="512">
<path d="M0 0 C32.34 0 64.68 0 98 0 C98 10.89 98 21.78 98 33 C108.89 33 119.78 33 131 33 C131 65.34 131 97.68 131 131 C120.11 131 109.22 131 98 131 C98 141.89 98 152.78 98 164 C65.66 164 33.32 164 0 164 C0 153.11 0 142.22 0 131 C-10.89 131 -21.78 131 -33 131 C-33 98.66 -33 66.32 -33 33 C-22.11 33 -11.22 33 0 33 C0 22.11 0 11.22 0 0 Z M1 34 C1 65.68 1 97.36 1 130 C32.68 130 64.36 130 97 130 C97 98.32 97 66.64 97 34 C65.32 34 33.64 34 1 34 Z " fill="#1FCAFF" transform="translate(207,174)"/>
<path d="M0 0 C11.22 0 22.44 0 34 0 C34 21.78 34 43.56 34 66 C22.78 66 11.56 66 0 66 C0 44.22 0 22.44 0 0 Z " fill="#1FCAFF" transform="translate(239,370)"/>
<path d="M0 0 C11.22 0 22.44 0 34 0 C34 10.89 34 21.78 34 33 C44.56 33 55.12 33 66 33 C66 43.89 66 54.78 66 66 C55.11 66 44.22 66 33 66 C33 55.44 33 44.88 33 34 C22.11 34 11.22 34 0 34 C0 22.78 0 11.56 0 0 Z " fill="#1ECBFF" transform="translate(337,337)"/>
<path d="M0 0 C11.22 0 22.44 0 34 0 C34 11.22 34 22.44 34 34 C23.11 34 12.22 34 1 34 C1 44.56 1 55.12 1 66 C-9.89 66 -20.78 66 -32 66 C-32 55.11 -32 44.22 -32 33 C-21.44 33 -10.88 33 0 33 C0 22.11 0 11.22 0 0 Z " fill="#1ECAFF" transform="translate(141,337)"/>
<path d="M0 0 C21.78 0 43.56 0 66 0 C66 11.22 66 22.44 66 34 C44.22 34 22.44 34 0 34 C0 22.78 0 11.56 0 0 Z " fill="#1FCAFF" transform="translate(370,239)"/>
<path d="M0 0 C21.78 0 43.56 0 66 0 C66 11.22 66 22.44 66 34 C44.22 34 22.44 34 0 34 C0 22.78 0 11.56 0 0 Z " fill="#1FCAFF" transform="translate(76,239)"/>
<path d="M0 0 C10.89 0 21.78 0 33 0 C33 10.89 33 21.78 33 33 C22.44 33 11.88 33 1 33 C1 43.89 1 54.78 1 66 C-10.22 66 -21.44 66 -33 66 C-33 54.78 -33 43.56 -33 32 C-22.11 32 -11.22 32 0 32 C0 21.44 0 10.88 0 0 Z " fill="#1ECAFF" transform="translate(370,109)"/>
<path d="M0 0 C10.89 0 21.78 0 33 0 C33 10.56 33 21.12 33 32 C43.89 32 54.78 32 66 32 C66 43.22 66 54.44 66 66 C54.78 66 43.56 66 32 66 C32 55.11 32 44.22 32 33 C21.44 33 10.88 33 0 33 C0 22.11 0 11.22 0 0 Z " fill="#1ECBFF" transform="translate(109,109)"/>
<path d="M0 0 C11.22 0 22.44 0 34 0 C34 21.78 34 43.56 34 66 C22.78 66 11.56 66 0 66 C0 44.22 0 22.44 0 0 Z " fill="#1FCAFF" transform="translate(239,76)"/>
</svg>
