<?xml version="1.0" encoding="UTF-8"?>
<svg version="1.1" xmlns="http://www.w3.org/2000/svg" width="512" height="512">
<path d="M0 0 C10.23 0 20.46 0 31 0 C31 9.9 31 19.8 31 30 C50.8 30 70.6 30 91 30 C91 49.8 91 69.6 91 90 C100.9 90 110.8 90 121 90 C121 100.23 121 110.46 121 121 C111.1 121 101.2 121 91 121 C91 140.8 91 160.6 91 181 C71.2 181 51.4 181 31 181 C31 190.9 31 200.8 31 211 C20.77 211 10.54 211 0 211 C0 201.1 0 191.2 0 181 C-19.47 181 -38.94 181 -59 181 C-59 190.57 -59 200.14 -59 210 C-49.1 210 -39.2 210 -29 210 C-29 219.9 -29 229.8 -29 240 C-19.1 240 -9.2 240 1 240 C1 270.36 1 300.72 1 332 C-8.9 332 -18.8 332 -29 332 C-29 341.57 -29 351.14 -29 361 C-19.1 361 -9.2 361 1 361 C1 391.03 1 421.06 1 452 C-8.9 452 -18.8 452 -29 452 C-29 461.9 -29 471.8 -29 482 C-38.9 482 -48.8 482 -59 482 C-59 491.9 -59 501.8 -59 512 C-148.76 512 -238.52 512 -331 512 C-331 502.1 -331 492.2 -331 482 C-340.9 482 -350.8 482 -361 482 C-361 472.1 -361 462.2 -361 452 C-370.9 452 -380.8 452 -391 452 C-391 421.97 -391 391.94 -391 361 C-381.1 361 -371.2 361 -361 361 C-361 351.43 -361 341.86 -361 332 C-370.9 332 -380.8 332 -391 332 C-391 301.64 -391 271.28 -391 240 C-381.1 240 -371.2 240 -361 240 C-361 230.1 -361 220.2 -361 210 C-351.1 210 -341.2 210 -331 210 C-331 200.1 -331 190.2 -331 180 C-241.57 180 -152.14 180 -60 180 C-60 160.53 -60 141.06 -60 121 C-69.9 121 -79.8 121 -90 121 C-90 110.77 -90 100.54 -90 90 C-80.1 90 -70.2 90 -60 90 C-60 70.2 -60 50.4 -60 30 C-40.2 30 -20.4 30 0 30 C0 20.1 0 10.2 0 0 Z M1 91 C1 100.57 1 110.14 1 120 C10.57 120 20.14 120 30 120 C30 110.43 30 100.86 30 91 C20.43 91 10.86 91 1 91 Z M-330 211 C-330 220.9 -330 230.8 -330 241 C-339.9 241 -349.8 241 -360 241 C-360 250.9 -360 260.8 -360 271 C-350.1 271 -340.2 271 -330 271 C-330 280.9 -330 290.8 -330 301 C-240.9 301 -151.8 301 -60 301 C-60 291.1 -60 281.2 -60 271 C-50.1 271 -40.2 271 -30 271 C-30 261.1 -30 251.2 -30 241 C-39.9 241 -49.8 241 -60 241 C-60 231.1 -60 221.2 -60 211 C-149.1 211 -238.2 211 -330 211 Z M-360 362 C-360 371.57 -360 381.14 -360 391 C-350.43 391 -340.86 391 -331 391 C-331 381.43 -331 371.86 -331 362 C-340.57 362 -350.14 362 -360 362 Z M-59 362 C-59 371.57 -59 381.14 -59 391 C-49.43 391 -39.86 391 -30 391 C-30 381.43 -30 371.86 -30 362 C-39.57 362 -49.14 362 -59 362 Z M-330 392 C-330 401.57 -330 411.14 -330 421 C-240.9 421 -151.8 421 -60 421 C-60 411.43 -60 401.86 -60 392 C-149.1 392 -238.2 392 -330 392 Z " fill="#FD002F" transform="translate(391,0)"/>
</svg>
