<?xml version="1.0" encoding="UTF-8"?>
<svg version="1.1" xmlns="http://www.w3.org/2000/svg" width="512" height="512">
<path d="M0 0 C50.16 0 100.32 0 152 0 C152 9.9 152 19.8 152 30 C171.8 30 191.6 30 212 30 C212 39.9 212 49.8 212 60 C221.9 60 231.8 60 242 60 C242 79.8 242 99.6 242 120 C251.9 120 261.8 120 272 120 C272 159.93 272 199.86 272 241 C262.1 241 252.2 241 242 241 C242 251.23 242 261.46 242 272 C232.1 272 222.2 272 212 272 C212 281.9 212 291.8 212 302 C202.1 302 192.2 302 182 302 C182 361.4 182 420.8 182 482 C172.1 482 162.2 482 152 482 C152 491.9 152 501.8 152 512 C101.84 512 51.68 512 0 512 C0 502.1 0 492.2 0 482 C-9.9 482 -19.8 482 -30 482 C-30 422.6 -30 363.2 -30 302 C-39.9 302 -49.8 302 -60 302 C-60 292.1 -60 282.2 -60 272 C-69.9 272 -79.8 272 -90 272 C-90 261.77 -90 251.54 -90 241 C-99.9 241 -109.8 241 -120 241 C-120 201.07 -120 161.14 -120 120 C-110.1 120 -100.2 120 -90 120 C-90 100.2 -90 80.4 -90 60 C-80.1 60 -70.2 60 -60 60 C-60 50.1 -60 40.2 -60 30 C-40.2 30 -20.4 30 0 30 C0 20.1 0 10.2 0 0 Z M61 91 C61 100.9 61 110.8 61 121 C51.1 121 41.2 121 31 121 C31 130.9 31 140.8 31 151 C21.1 151 11.2 151 1 151 C1 180.37 1 209.74 1 240 C10.9 240 20.8 240 31 240 C31 250.23 31 260.46 31 271 C40.57 271 50.14 271 60 271 C60 231.07 60 191.14 60 150 C70.56 150 81.12 150 92 150 C92 189.93 92 229.86 92 271 C101.57 271 111.14 271 121 271 C121 260.77 121 250.54 121 240 C130.9 240 140.8 240 151 240 C151 210.63 151 181.26 151 151 C141.1 151 131.2 151 121 151 C121 141.1 121 131.2 121 121 C111.1 121 101.2 121 91 121 C91 111.1 91 101.2 91 91 C81.1 91 71.2 91 61 91 Z M61 272 C61 281.57 61 291.14 61 301 C70.9 301 80.8 301 91 301 C91 291.43 91 281.86 91 272 C81.1 272 71.2 272 61 272 Z M1 362 C1 371.57 1 381.14 1 391 C50.5 391 100 391 151 391 C151 381.43 151 371.86 151 362 C101.5 362 52 362 1 362 Z M1 422 C1 431.57 1 441.14 1 451 C50.5 451 100 451 151 451 C151 441.43 151 431.86 151 422 C101.5 422 52 422 1 422 Z " fill="#76FF02" transform="translate(180,0)"/>
</svg>
