<?xml version="1.0" encoding="UTF-8"?>
<svg version="1.1" xmlns="http://www.w3.org/2000/svg" width="1024" height="1024">
<path d="M0 0 C107.58 0 215.16 0 326 0 C326 15.51 326 31.02 326 47 C356.69 47 387.38 47 419 47 C419 62.18 419 77.36 419 93 C434.51 93 450.02 93 466 93 C466 108.51 466 124.02 466 140 C481.51 140 497.02 140 513 140 C513 170.69 513 201.38 513 233 C528.18 233 543.36 233 559 233 C559 340.58 559 448.16 559 559 C543.82 559 528.64 559 513 559 C513 589.69 513 620.38 513 652 C497.49 652 481.98 652 466 652 C466 667.51 466 683.02 466 699 C450.49 699 434.98 699 419 699 C419 714.18 419 729.36 419 745 C388.31 745 357.62 745 326 745 C326 760.51 326 776.02 326 792 C218.42 792 110.84 792 0 792 C0 776.49 0 760.98 0 745 C-30.69 745 -61.38 745 -93 745 C-93 699.13 -93 653.26 -93 606 C-139.2 606 -185.4 606 -233 606 C-233 590.49 -233 574.98 -233 559 C-248.51 559 -264.02 559 -280 559 C-280 543.82 -280 528.64 -280 513 C-295.18 513 -310.36 513 -326 513 C-326 497.49 -326 481.98 -326 466 C-333.59 466 -341.18 466 -349 466 C-349 434.98 -349 403.96 -349 372 C-310.72 372 -272.44 372 -233 372 C-233 326.13 -233 280.26 -233 233 C-217.82 233 -202.64 233 -187 233 C-187 202.31 -187 171.62 -187 140 C-171.49 140 -155.98 140 -140 140 C-140 124.49 -140 108.98 -140 93 C-124.49 93 -108.98 93 -93 93 C-93 77.82 -93 62.64 -93 47 C-62.31 47 -31.62 47 0 47 C0 31.49 0 15.98 0 0 Z M94 140 C94 155.51 94 171.02 94 187 C63.31 187 32.62 187 1 187 C1 202.18 1 217.36 1 233 C-14.51 233 -30.02 233 -46 233 C-46 264.02 -46 295.04 -46 327 C-61.51 327 -77.02 327 -93 327 C-93 341.85 -93 356.7 -93 372 C-46.8 372 -0.6 372 47 372 C47 403.02 47 434.04 47 466 C31.82 466 16.64 466 1 466 C0.67 481.18 0.34 496.36 0 512 C-15.18 512.33 -30.36 512.66 -46 513 C-46 528.18 -46 543.36 -46 559 C-61.51 559 -77.02 559 -93 559 C-93 574.18 -93 589.36 -93 605 C-31.29 605 30.42 605 94 605 C94 620.51 94 636.02 94 652 C139.54 652 185.08 652 232 652 C232 636.49 232 620.98 232 605 C262.69 605 293.38 605 325 605 C325 589.82 325 574.64 325 559 C340.51 559 356.02 559 372 559 C372 527.98 372 496.96 372 465 C387.51 465 403.02 465 419 465 C419 419.46 419 373.92 419 327 C403.49 327 387.98 327 372 327 C372 295.98 372 264.96 372 233 C356.49 233 340.98 233 325 233 C325 217.82 325 202.64 325 187 C294.31 187 263.62 187 232 187 C232 171.49 232 155.98 232 140 C186.46 140 140.92 140 94 140 Z " fill="#1FCAFF" transform="translate(349,116)"/>
</svg>
