<?xml version="1.0" encoding="UTF-8"?>
<svg version="1.1" xmlns="http://www.w3.org/2000/svg" width="512" height="512">
<path d="M0 0 C62.7 0 125.4 0 190 0 C190 21.78 190 43.56 190 66 C208.48 66 226.96 66 246 66 C246 77.22 246 88.44 246 100 C256.89 100 267.78 100 279 100 C279 110.89 279 121.78 279 133 C290.22 133 301.44 133 313 133 C313 144.22 313 155.44 313 167 C301.78 167 290.56 167 279 167 C279 269.96 279 372.92 279 479 C268.11 479 257.22 479 246 479 C246 489.89 246 500.78 246 512 C146.34 512 46.68 512 -56 512 C-56 501.11 -56 490.22 -56 479 C-66.89 479 -77.78 479 -89 479 C-89 376.04 -89 273.08 -89 167 C-100.22 167 -111.44 167 -123 167 C-123 155.78 -123 144.56 -123 133 C-111.78 133 -100.56 133 -89 133 C-89 122.11 -89 111.22 -89 100 C-78.11 100 -67.22 100 -56 100 C-56 88.78 -56 77.56 -56 66 C-37.52 66 -19.04 66 0 66 C0 44.22 0 22.44 0 0 Z M34 34 C34 44.56 34 55.12 34 66 C74.26 66 114.52 66 156 66 C156 55.44 156 44.88 156 34 C115.74 34 75.48 34 34 34 Z M-88 134 C-88 144.56 -88 155.12 -88 166 C32.78 166 153.56 166 278 166 C278 155.44 278 144.88 278 134 C157.22 134 36.44 134 -88 134 Z M12 201 C12 281.52 12 362.04 12 445 C22.56 445 33.12 445 44 445 C44 364.48 44 283.96 44 201 C33.44 201 22.88 201 12 201 Z M146 201 C146 281.52 146 362.04 146 445 C156.56 445 167.12 445 178 445 C178 364.48 178 283.96 178 201 C167.44 201 156.88 201 146 201 Z " fill="#000000" transform="translate(161,0)"/>
</svg>
