<?xml version="1.0" encoding="UTF-8"?>
<svg version="1.1" xmlns="http://www.w3.org/2000/svg" width="512" height="512">
<path d="M0 0 C14.52 0 29.04 0 44 0 C44 14.19 44 28.38 44 43 C57.86 43 71.72 43 86 43 C86 56.86 86 70.72 86 85 C100.19 85 114.38 85 129 85 C129 99.19 129 113.38 129 128 C143.19 128 157.38 128 172 128 C172 142.19 172 156.38 172 171 C157.48 171 142.96 171 128 171 C128 157.14 128 143.28 128 129 C113.81 129 99.62 129 85 129 C85 114.81 85 100.62 85 86 C71.47 86 57.94 86 44 86 C44 181.04 44 276.08 44 374 C29.48 374 14.96 374 0 374 C0 278.96 0 183.92 0 86 C-13.86 86 -27.72 86 -42 86 C-42 100.19 -42 114.38 -42 129 C-55.86 129 -69.72 129 -84 129 C-84 142.86 -84 156.72 -84 171 C-98.52 171 -113.04 171 -128 171 C-128 156.81 -128 142.62 -128 128 C-113.81 128 -99.62 128 -85 128 C-85 113.81 -85 99.62 -85 85 C-71.14 85 -57.28 85 -43 85 C-43 71.14 -43 57.28 -43 43 C-28.81 43 -14.62 43 0 43 C0 28.81 0 14.62 0 0 Z " fill="#000000" transform="translate(230,21)"/>
<path d="M0 0 C49.5 0 99 0 150 0 C150 14.19 150 28.38 150 43 C100.5 43 51 43 0 43 C0 28.81 0 14.62 0 0 Z " fill="#000000" transform="translate(177,448)"/>
</svg>
